<?xml version="1.0" encoding="utf-8"?>
<!-- Generator: Adobe Illustrator 29.4.0, SVG Export Plug-In . SVG Version: 9.03 Build 0)  -->
<svg version="1.0" id="Layer_1" xmlns="http://www.w3.org/2000/svg" xmlns:xlink="http://www.w3.org/1999/xlink" x="0px" y="0px"
	 viewBox="0 0 24 24" style="enable-background:new 0 0 24 24;" xml:space="preserve">
<style type="text/css">
	.st0{fill:#1A2437;}
</style>
<g>
	<path class="st0" d="M24,11.5c0-0.7-0.2-1.3-0.5-1.9C23.2,9,22.8,8.5,22.2,8c0.7-0.6,1.3-1.4,1.5-2.3C24,4.8,23.9,3.8,23.6,3
		c-0.3-0.9-0.9-1.6-1.6-2.2C21.3,0.3,20.4,0,19.5,0h-15C3.6,0,2.7,0.3,1.9,0.8C1.1,1.4,0.6,2.1,0.2,3s-0.3,1.8-0.1,2.7S1,7.4,1.7,8
		c-0.5,0.4-1,0.9-1.3,1.6C0.2,10.2,0,10.8,0,11.5s0.2,1.3,0.4,1.9C0.7,14,1.1,14.5,1.7,15c-0.7,0.6-1.3,1.4-1.5,2.3S0,19.2,0.3,20
		c0.3,0.9,0.9,1.6,1.6,2.2C2.7,22.7,3.6,23,4.5,23h15c0.9,0,1.8-0.3,2.6-0.8c0.8-0.5,1.3-1.3,1.6-2.2c0.3-0.9,0.3-1.8,0.1-2.7
		c-0.3-0.9-0.8-1.7-1.5-2.3c0.5-0.4,1-0.9,1.3-1.6C23.8,12.8,24,12.2,24,11.5z M2,4.5c0-0.7,0.3-1.3,0.7-1.8S3.8,2,4.5,2H5v1
		c0,0.3,0.1,0.5,0.3,0.7C5.5,3.9,5.7,4,6,4s0.5-0.1,0.7-0.3C6.9,3.5,7,3.3,7,3V2h2v1c0,0.3,0.1,0.5,0.3,0.7S9.7,4,10,4
		s0.5-0.1,0.7-0.3S11,3.3,11,3V2h8.5c0.7,0,1.3,0.3,1.8,0.7C21.7,3.2,22,3.8,22,4.5s-0.3,1.3-0.7,1.8C20.8,6.7,20.2,7,19.5,7h-15
		C3.8,7,3.2,6.7,2.7,6.3C2.3,5.8,2,5.2,2,4.5z M22,18.5c0,0.7-0.3,1.3-0.7,1.8c-0.5,0.5-1.1,0.7-1.8,0.7h-15c-0.7,0-1.3-0.3-1.8-0.7
		C2.3,19.8,2,19.2,2,18.5s0.3-1.3,0.7-1.8C3.2,16.3,3.8,16,4.5,16H5v1c0,0.3,0.1,0.5,0.3,0.7C5.5,17.9,5.7,18,6,18s0.5-0.1,0.7-0.3
		C6.9,17.5,7,17.3,7,17v-1h2v1c0,0.3,0.1,0.5,0.3,0.7C9.5,17.9,9.7,18,10,18s0.5-0.1,0.7-0.3c0.2-0.2,0.3-0.4,0.3-0.7v-1h8.5
		c0.7,0,1.3,0.3,1.8,0.7C21.7,17.2,22,17.8,22,18.5z M4.5,14c-0.7,0-1.3-0.3-1.8-0.7C2.3,12.8,2,12.2,2,11.5s0.3-1.3,0.7-1.8
		C3.2,9.3,3.8,9,4.5,9H5v1c0,0.3,0.1,0.5,0.3,0.7C5.5,10.9,5.7,11,6,11s0.5-0.1,0.7-0.3C6.9,10.5,7,10.3,7,10V9h2v1
		c0,0.3,0.1,0.5,0.3,0.7S9.7,11,10,11s0.5-0.1,0.7-0.3S11,10.3,11,10V9h8.5c0.7,0,1.3,0.3,1.8,0.7c0.5,0.5,0.7,1.1,0.7,1.8
		s-0.3,1.3-0.7,1.8c-0.5,0.5-1.1,0.7-1.8,0.7H4.5z"/>
</g>
</svg>
