<?xml version="1.0" encoding="utf-8"?>
<!-- Generator: Adobe Illustrator 29.4.0, SVG Export Plug-In . SVG Version: 9.03 Build 0)  -->
<svg version="1.0" id="Layer_1" xmlns="http://www.w3.org/2000/svg" xmlns:xlink="http://www.w3.org/1999/xlink" x="0px" y="0px"
	 viewBox="0 0 24 24" style="enable-background:new 0 0 24 24;" xml:space="preserve">
<style type="text/css">
	.st0{fill:#1A2437;}
</style>
<g>
	<path class="st0" d="M18,24H6c-1.3,0-2.6-0.5-3.5-1.5C1.5,21.6,1,20.3,1,19V5c0-1.3,0.5-2.6,1.5-3.5C3.4,0.5,4.7,0,6,0h12
		c1.3,0,2.6,0.5,3.5,1.5C22.5,2.4,23,3.7,23,5v14c0,1.3-0.5,2.6-1.5,3.5C20.6,23.5,19.3,24,18,24z M6,2C5.2,2,4.4,2.3,3.9,2.9
		S3,4.2,3,5v14c0,0.8,0.3,1.6,0.9,2.1C4.4,21.7,5.2,22,6,22h12c0.8,0,1.6-0.3,2.1-0.9c0.6-0.6,0.9-1.3,0.9-2.1V5
		c0-0.8-0.3-1.6-0.9-2.1C19.6,2.3,18.8,2,18,2H6z M16,10H8c-0.8,0-1.6-0.3-2.1-0.9C5.3,8.6,5,7.8,5,7s0.3-1.6,0.9-2.1S7.2,4,8,4h8
		c0.8,0,1.6,0.3,2.1,0.9C18.7,5.4,19,6.2,19,7s-0.3,1.6-0.9,2.1C17.6,9.7,16.8,10,16,10z M8,6C7.7,6,7.5,6.1,7.3,6.3
		C7.1,6.5,7,6.7,7,7s0.1,0.5,0.3,0.7C7.5,7.9,7.7,8,8,8h8c0.3,0,0.5-0.1,0.7-0.3C16.9,7.5,17,7.3,17,7s-0.1-0.5-0.3-0.7
		C16.5,6.1,16.3,6,16,6H8z M6,13c-0.2,0-0.4,0.1-0.6,0.2c-0.2,0.1-0.3,0.3-0.4,0.4c0,0.2,0,0.4,0,0.6s0.1,0.4,0.3,0.5
		c0.1,0.1,0.3,0.2,0.5,0.3c0.2,0,0.4,0,0.6-0.1s0.3-0.2,0.4-0.4C6.9,14.4,7,14.2,7,14c0-0.3-0.1-0.5-0.3-0.7C6.5,13.1,6.3,13,6,13z
		 M10,13c-0.2,0-0.4,0.1-0.6,0.2c-0.2,0.1-0.3,0.3-0.4,0.4c0,0.2,0,0.4,0,0.6s0.1,0.4,0.3,0.5c0.1,0.1,0.3,0.2,0.5,0.3
		c0.2,0,0.4,0,0.6-0.1c0.2-0.1,0.3-0.2,0.4-0.4c0.1-0.2,0.2-0.4,0.2-0.6c0-0.3-0.1-0.5-0.3-0.7S10.3,13,10,13z M14,13
		c-0.2,0-0.4,0.1-0.6,0.2c-0.2,0.1-0.3,0.3-0.4,0.4c0,0.2,0,0.4,0,0.6s0.1,0.4,0.3,0.5c0.1,0.1,0.3,0.2,0.5,0.3s0.4,0,0.6-0.1
		c0.2-0.1,0.3-0.2,0.4-0.4c0.1-0.2,0.2-0.4,0.2-0.6c0-0.3-0.1-0.5-0.3-0.7S14.3,13,14,13z M6,17c-0.2,0-0.4,0.1-0.6,0.2
		S5.1,17.5,5,17.6c0,0.2,0,0.4,0,0.6s0.1,0.4,0.3,0.5c0.1,0.1,0.3,0.2,0.5,0.3c0.2,0,0.4,0,0.6-0.1s0.3-0.2,0.4-0.4
		C6.9,18.4,7,18.2,7,18c0-0.3-0.1-0.5-0.3-0.7C6.5,17.1,6.3,17,6,17z M10,17c-0.2,0-0.4,0.1-0.6,0.2c-0.2,0.1-0.3,0.3-0.4,0.4
		c0,0.2,0,0.4,0,0.6s0.1,0.4,0.3,0.5c0.1,0.1,0.3,0.2,0.5,0.3c0.2,0,0.4,0,0.6-0.1c0.2-0.1,0.3-0.2,0.4-0.4c0.1-0.2,0.2-0.4,0.2-0.6
		c0-0.3-0.1-0.5-0.3-0.7S10.3,17,10,17z M18,13c-0.2,0-0.4,0.1-0.6,0.2c-0.2,0.1-0.3,0.3-0.4,0.4c0,0.2,0,0.4,0,0.6s0.1,0.4,0.3,0.5
		c0.1,0.1,0.3,0.2,0.5,0.3c0.2,0,0.4,0,0.6-0.1s0.3-0.2,0.4-0.4s0.2-0.4,0.2-0.6c0-0.3-0.1-0.5-0.3-0.7S18.3,13,18,13z M19,18
		c0-0.3-0.1-0.5-0.3-0.7S18.3,17,18,17h-4c-0.3,0-0.5,0.1-0.7,0.3S13,17.7,13,18s0.1,0.5,0.3,0.7S13.7,19,14,19h4
		c0.3,0,0.5-0.1,0.7-0.3S19,18.3,19,18z"/>
</g>
</svg>
