<?xml version="1.0" encoding="UTF-8"?>
<svg id="Layer_1" xmlns="http://www.w3.org/2000/svg" version="1.1" viewBox="0 0 24 24">
  <!-- Generator: Adobe Illustrator 29.6.0, SVG Export Plug-In . SVG Version: 2.1.1 Build 207)  -->
  <defs>
    <style>
      .st0 {
        fill: #fd5608;
      }
    </style>
  </defs>
  <path class="st0" d="M23,22H5c-.8,0-1.6-.3-2.1-.9-.6-.6-.9-1.3-.9-2.1V1c0-.3-.1-.5-.3-.7-.2-.2-.4-.3-.7-.3S.5.1.3.3c-.2.2-.3.4-.3.7v18c0,1.3.5,2.6,1.5,3.5.9.9,2.2,1.5,3.5,1.5h18c.3,0,.5-.1.7-.3s.3-.4.3-.7-.1-.5-.3-.7-.4-.3-.7-.3Z"/>
  <rect class="st0" x="7.3" y="6.6" width="2.1" height="13.2" rx="1.1" ry="1.1"/>
  <rect class="st0" x="11.7" y="10.2" width="2.1" height="9.6" rx="1.1" ry="1.1"/>
  <rect class="st0" x="16.1" y="3.8" width="2.1" height="15.9" rx="1.1" ry="1.1"/>
</svg>