<?xml version="1.0" encoding="UTF-8"?>
<svg id="Layer_1" xmlns="http://www.w3.org/2000/svg" version="1.1" viewBox="0 0 24 24">
  <!-- Generator: Adobe Illustrator 29.4.0, SVG Export Plug-In . SVG Version: 2.1.0 Build 152)  -->
  <defs>
    <style>
      .st0 {
        fill: #f15f38;
      }
    </style>
  </defs>
  <path class="st0" d="M12,17.2c-.7,0-1.3-.1-1.9-.4-.6-.3-1.2-.6-1.6-1.1L.3,7.5C.1,7.4,0,7.1,0,6.8s.1-.5.3-.7c.2-.2.4-.3.7-.3s.5.1.7.3l8.2,8.2c.6.6,1.3.9,2.1.9s1.6-.3,2.1-.9l8.2-8.2c.2-.2.4-.3.7-.3s.5.1.7.3c.2.2.3.4.3.7s-.1.5-.3.7l-8.2,8.2c-.5.5-1,.8-1.6,1.1-.6.3-1.3.4-1.9.4Z"/>
</svg>